<svg width="64" height="64" viewBox="0 0 64 64" fill="none" xmlns="http://www.w3.org/2000/svg">
<path d="M51.1219 24.2827C51.5623 23.8423 52.2765 23.8423 52.717 24.2827C53.1574 24.7232 53.1574 25.4373 52.717 25.8778L44.2584 34.3364C43.818 34.7768 43.1038 34.7768 42.6633 34.3364C42.2229 33.8959 42.2229 33.1817 42.6633 32.7413L51.1219 24.2827Z" fill="black"/>
<path d="M54.3297 18.2717C55.479 17.9307 56.7075 17.7988 57.7557 18.5559C58.8101 19.3174 59.0211 20.4998 58.9984 21.6615C58.9757 22.823 58.7073 24.351 58.3843 26.2122L57.2475 32.7601C57.0379 33.9676 56.862 34.9977 56.6028 35.7844C56.3329 36.6036 55.911 37.3604 55.0746 37.8359C54.2407 38.3099 53.3533 38.3006 52.482 38.1349C51.6422 37.9753 50.6202 37.6287 49.416 37.2239L41.839 34.6778C39.5605 33.912 37.7259 33.2984 36.4646 32.6724C35.2505 32.0699 34.0866 31.2257 34.0045 29.7866C33.9223 28.3463 34.9849 27.3839 36.1237 26.6573C37.3065 25.9027 39.0603 25.1002 41.2379 24.1001L49.9517 20.0988C51.7256 19.2841 53.177 18.6138 54.3297 18.2717ZM56.3356 20.4122C56.2292 20.3353 55.9748 20.2025 55.0253 20.4842C54.0791 20.765 52.8151 21.3417 50.9686 22.1897L42.2553 26.1914C40.0058 27.2245 38.4391 27.9469 37.4301 28.5906C36.3773 29.2623 36.3764 29.5719 36.3813 29.6587C36.3864 29.7469 36.4248 30.0556 37.5478 30.6129C38.6242 31.1471 40.2638 31.7011 42.6171 32.492L50.194 35.0382C51.4665 35.4658 52.3023 35.7438 52.9392 35.8649C53.5444 35.9799 53.753 35.9074 53.8724 35.8395C53.9891 35.7731 54.1517 35.6378 54.3358 35.0793C54.5306 34.4879 54.6785 33.6535 54.9002 32.3756L56.0366 25.8276L56.2672 24.4847C56.4737 23.2499 56.6046 22.3281 56.6185 21.6175C56.637 20.6703 56.4359 20.4846 56.3356 20.4122Z" fill="black"/>
<path d="M47.4743 36.368C47.8204 35.8282 48.505 35.6943 49.0035 36.069C49.502 36.4439 49.6257 37.1858 49.2796 37.7258L48.3609 39.1585C48.3522 39.1719 48.3434 39.1851 48.3343 39.1981C47.5331 40.3439 46.8658 41.3028 46.2948 41.931C45.7987 42.4769 45.0191 43.1845 44.0264 42.9557L43.9294 42.9304C42.8189 42.6098 42.5425 41.4495 42.4421 40.6931C42.3305 39.8531 42.333 38.6881 42.333 37.3174V34.6664C42.333 34.0091 42.8251 33.4761 43.432 33.4761C44.0389 33.4761 44.531 34.0091 44.531 34.6664V37.3174C44.531 38.7716 44.5336 39.7257 44.6171 40.3545C44.6181 40.3615 44.619 40.3685 44.62 40.3754C44.653 40.3416 44.6895 40.3042 44.7286 40.2612C45.1716 39.7738 45.732 38.977 46.5649 37.7859L47.4743 36.368Z" fill="black"/>
<path d="M28.328 17.5235C28.6451 17.2064 29.1593 17.2064 29.4765 17.5235C29.7936 17.8406 29.7936 18.3548 29.4765 18.6719L23.3863 24.7621C23.0692 25.0792 22.555 25.0792 22.2378 24.7621C21.9207 24.445 21.9207 23.9308 22.2378 23.6136L28.328 17.5235Z" fill="black"/>
<path d="M30.6374 13.1957C31.4649 12.9501 32.3494 12.8551 33.1041 13.4003C33.8632 13.9486 34.0152 14.7999 33.9989 15.6363C33.9825 16.4726 33.7892 17.5727 33.5567 18.9128L32.7382 23.6273C32.5873 24.4967 32.4606 25.2383 32.274 25.8048C32.0797 26.3946 31.7759 26.9395 31.1737 27.2819C30.5733 27.6231 29.9344 27.6164 29.307 27.4971C28.7024 27.3822 27.9666 27.1327 27.0995 26.8412L21.6441 25.008C20.0036 24.4566 18.6826 24.0148 17.7745 23.5642C16.9004 23.1303 16.0623 22.5225 16.0032 21.4864C15.9441 20.4493 16.7091 19.7564 17.5291 19.2333C18.3807 18.6899 19.6434 18.1121 21.2113 17.3921L27.4852 14.5111C28.7624 13.9246 29.8075 13.4419 30.6374 13.1957ZM32.0816 14.7368C32.005 14.6814 31.8218 14.5858 31.1382 14.7886C30.4569 14.9908 29.5468 15.406 28.2174 16.0166L21.9438 18.8978C20.3242 19.6416 19.1961 20.1618 18.4697 20.6253C17.7116 21.1089 17.711 21.3318 17.7146 21.3943C17.7182 21.4578 17.7459 21.6801 18.5544 22.0813C19.3295 22.4659 20.5099 22.8648 22.2043 23.4343L27.6597 25.2675C28.5758 25.5754 29.1776 25.7755 29.6362 25.8627C30.072 25.9455 30.2221 25.8933 30.3082 25.8444C30.3922 25.7966 30.5093 25.6992 30.6418 25.2971C30.782 24.8713 30.8885 24.2705 31.0482 23.3504L31.8663 18.6359L32.0324 17.669C32.1811 16.7799 32.2753 16.1163 32.2853 15.6046C32.2986 14.9226 32.1539 14.7889 32.0816 14.7368Z" fill="black"/>
<path d="M25.7017 26.225C25.9509 25.8363 26.4438 25.7399 26.8028 26.0098C27.1617 26.2797 27.2507 26.8138 27.0015 27.2026L26.34 28.2341C26.3339 28.2438 26.3275 28.2533 26.3209 28.2627C25.7441 29.0877 25.2636 29.7781 24.8525 30.2304C24.4953 30.6234 23.934 31.1329 23.2192 30.9682L23.1494 30.95C22.3499 30.7191 22.1509 29.8837 22.0785 29.3391C21.9982 28.7343 22 27.8955 22 26.9085V24.9999C22 24.5266 22.3543 24.1428 22.7913 24.1428C23.2282 24.1428 23.5826 24.5266 23.5826 24.9999V26.9085C23.5826 27.9556 23.5844 28.6425 23.6446 29.0953C23.6453 29.1004 23.6459 29.1054 23.6466 29.1103C23.6704 29.086 23.6967 29.0591 23.7248 29.0281C24.0438 28.6772 24.4472 28.1035 25.0469 27.2459L25.7017 26.225Z" fill="black"/>
<path d="M25.1219 38.2827C25.5623 37.8423 26.2765 37.8423 26.717 38.2827C27.1574 38.7232 27.1574 39.4373 26.717 39.8778L18.2584 48.3364C17.818 48.7768 17.1038 48.7768 16.6633 48.3364C16.2229 47.8959 16.2229 47.1817 16.6633 46.7413L25.1219 38.2827Z" fill="black"/>
<path d="M28.3297 32.2717C29.479 31.9307 30.7075 31.7988 31.7557 32.5559C32.8101 33.3174 33.0211 34.4998 32.9984 35.6615C32.9757 36.823 32.7073 38.351 32.3843 40.2122L31.2475 46.7601C31.0379 47.9676 30.862 48.9977 30.6028 49.7844C30.3329 50.6036 29.911 51.3604 29.0746 51.8359C28.2407 52.3099 27.3533 52.3006 26.482 52.1349C25.6422 51.9753 24.6202 51.6287 23.416 51.2239L15.839 48.6778C13.5605 47.912 11.7259 47.2984 10.4646 46.6724C9.25049 46.0699 8.08659 45.2257 8.00447 43.7866C7.92231 42.3463 8.9849 41.3839 10.1237 40.6573C11.3065 39.9027 13.0603 39.1002 15.2379 38.1001L23.9517 34.0988C25.7256 33.2841 27.177 32.6138 28.3297 32.2717ZM30.3356 34.4122C30.2292 34.3353 29.9748 34.2025 29.0253 34.4842C28.0791 34.765 26.8151 35.3417 24.9686 36.1897L16.2553 40.1914C14.0058 41.2245 12.4391 41.9469 11.4301 42.5906C10.3773 43.2623 10.3764 43.5719 10.3813 43.6587C10.3864 43.7469 10.4248 44.0556 11.5478 44.6129C12.6242 45.1471 14.2638 45.7011 16.6171 46.492L24.194 49.0382C25.4665 49.4658 26.3023 49.7438 26.9392 49.8649C27.5444 49.9799 27.753 49.9074 27.8724 49.8395C27.9891 49.7731 28.1517 49.6378 28.3358 49.0793C28.5306 48.4879 28.6785 47.6535 28.9002 46.3756L30.0366 39.8276L30.2672 38.4847C30.4737 37.2499 30.6046 36.3281 30.6185 35.6175C30.637 34.6703 30.4359 34.4846 30.3356 34.4122Z" fill="black"/>
<path d="M21.4743 50.368C21.8204 49.8282 22.505 49.6943 23.0035 50.069C23.502 50.4439 23.6257 51.1858 23.2796 51.7258L22.3609 53.1585C22.3522 53.1719 22.3434 53.1851 22.3343 53.1981C21.5331 54.3439 20.8658 55.3028 20.2948 55.931C19.7987 56.4769 19.0191 57.1845 18.0264 56.9557L17.9294 56.9304C16.8189 56.6098 16.5425 55.4495 16.4421 54.6931C16.3305 53.8531 16.333 52.6881 16.333 51.3174V48.6664C16.333 48.0091 16.8251 47.4761 17.432 47.4761C18.0389 47.4761 18.531 48.0091 18.531 48.6664V51.3174C18.531 52.7716 18.5336 53.7257 18.6171 54.3545C18.6181 54.3615 18.619 54.3685 18.62 54.3754C18.653 54.3416 18.6895 54.3042 18.7286 54.2612C19.1716 53.7738 19.732 52.977 20.5649 51.7859L21.4743 50.368Z" fill="black"/>
</svg>
