<svg width="64" height="64" viewBox="0 0 64 64" fill="none" xmlns="http://www.w3.org/2000/svg">
<path d="M50.4931 37.1875L48.7056 27.4582C47.9336 23.256 47.5475 21.1548 46.0187 19.9108C44.4899 18.6667 42.2939 18.6667 37.9019 18.6667H26.0983C21.7061 18.6667 19.5101 18.6667 17.9813 19.9108C16.4525 21.1548 16.0665 23.256 15.2943 27.4582L13.5068 37.1875C11.9042 45.9099 11.1029 50.2713 13.5704 53.1358C16.0378 56.0001 20.5961 56.0001 29.7128 56.0001H34.2872C43.404 56.0001 47.9621 56.0001 50.4296 53.1358C52.8971 50.2713 52.0957 45.9099 50.4931 37.1875Z" stroke="black" stroke-width="5.33333" stroke-linecap="round"/>
<path d="M31.9997 28V45.3333M25.333 40L31.9997 46.6667L38.6663 40" stroke="black" stroke-width="5.33333" stroke-linecap="round" stroke-linejoin="round"/>
<path d="M55.9997 29.3333C56.4178 29.1224 56.7813 28.8565 57.1042 28.5213C58.6663 26.9 58.6663 24.2905 58.6663 19.0714C58.6663 13.8523 58.6663 11.2427 57.1042 9.62136C55.5421 8 53.0279 8 47.9997 8H15.9997C10.9714 8 8.45719 8 6.89511 9.62136C5.33301 11.2427 5.33301 13.8523 5.33301 19.0714C5.33301 24.2905 5.33301 26.9 6.89511 28.5213C7.21802 28.8565 7.58159 29.1224 7.99967 29.3333" stroke="black" stroke-width="5.33333" stroke-linecap="round"/>
</svg>
