<svg width="64" height="64" viewBox="0 0 64 64" fill="none" xmlns="http://www.w3.org/2000/svg">
<path d="M18.6663 5.33325C11.3026 5.33325 5.33301 11.3028 5.33301 18.6666C5.33301 23.6018 8.01434 27.9109 11.9997 30.2162V47.5815C11.9997 49.7615 11.9997 50.8517 12.4056 51.8317C12.8116 52.8119 13.5824 53.5826 15.1239 55.1242L18.6663 58.6666L24.2882 53.0447C24.5475 52.7855 24.6772 52.6557 24.7847 52.5151C25.0672 52.1458 25.2481 51.709 25.3096 51.2479C25.333 51.0725 25.333 50.889 25.333 50.5223C25.333 50.2255 25.333 50.0773 25.3173 49.933C25.276 49.5549 25.1544 49.1901 24.9606 48.8629C24.8867 48.7381 24.7976 48.6194 24.6196 48.3821L21.333 43.9999L23.1997 41.5111C24.257 40.1013 24.7856 39.3965 25.0593 38.5754C25.333 37.7543 25.333 36.8733 25.333 35.1111V30.2162C29.3183 27.9109 31.9997 23.6018 31.9997 18.6666C31.9997 11.3028 26.0301 5.33325 18.6663 5.33325Z" stroke="black" stroke-width="5.33333" stroke-linejoin="round"/>
<path d="M18.667 18.6667H18.6909" stroke="black" stroke-width="5.33333" stroke-linecap="round" stroke-linejoin="round"/>
<path d="M34.667 37.3333H50.667C53.1521 37.3333 54.3945 37.3333 55.3747 37.7391C56.6814 38.2805 57.7198 39.3189 58.2611 40.6255C58.667 41.6058 58.667 42.8482 58.667 45.3333C58.667 47.8183 58.667 49.0607 58.2611 50.041C57.7198 51.3477 56.6814 52.3861 55.3747 52.9274C54.3945 53.3333 53.1521 53.3333 50.667 53.3333H34.667" stroke="black" stroke-width="5.33333" stroke-linecap="round"/>
<path d="M40 13.3333H50.6667C53.1517 13.3333 54.3941 13.3333 55.3744 13.7392C56.6811 14.2805 57.7195 15.3188 58.2608 16.6256C58.6667 17.6057 58.6667 18.8482 58.6667 21.3333C58.6667 23.8183 58.6667 25.0608 58.2608 26.0409C57.7195 27.3477 56.6811 28.3861 55.3744 28.9274C54.3941 29.3333 53.1517 29.3333 50.6667 29.3333H40" stroke="black" stroke-width="5.33333" stroke-linecap="round"/>
</svg>
