<svg width="64" height="64" viewBox="0 0 64 64" fill="none" xmlns="http://www.w3.org/2000/svg">
<path d="M58.6663 42.6667L53.333 37.3334H28.0855C26.1221 33.3822 22.0447 30.6667 17.333 30.6667C10.7056 30.6667 5.33301 36.0393 5.33301 42.6667C5.33301 49.2939 10.7056 54.6667 17.333 54.6667C22.0446 54.6667 26.122 51.9513 28.0855 48.0001H43.9997L47.333 44.5529L50.6663 48.0001H53.333L58.6663 42.6667Z" stroke="black" stroke-width="5.33333" stroke-linecap="round" stroke-linejoin="round"/>
<path d="M16 42.6667H18.6667" stroke="black" stroke-width="5.33333" stroke-linecap="round" stroke-linejoin="round"/>
<path d="M8 9.33325V22.6666" stroke="black" stroke-width="5.33333" stroke-linecap="round" stroke-linejoin="round"/>
<path d="M16 18.6666V13.3333C16 11.1241 17.7909 9.33325 20 9.33325C22.2091 9.33325 24 11.1241 24 13.3333V18.6666C24 20.8757 22.2091 22.6666 20 22.6666C17.7909 22.6666 16 20.8757 16 18.6666Z" stroke="black" stroke-width="5.33333" stroke-linecap="round" stroke-linejoin="round"/>
<path d="M32 9.33325V22.6666" stroke="black" stroke-width="5.33333" stroke-linecap="round" stroke-linejoin="round"/>
<path d="M40 9.33325V22.6666" stroke="black" stroke-width="5.33333" stroke-linecap="round" stroke-linejoin="round"/>
<path d="M48 18.6666V13.3333C48 11.1241 49.7909 9.33325 52 9.33325C54.2091 9.33325 56 11.1241 56 13.3333V18.6666C56 20.8757 54.2091 22.6666 52 22.6666C49.7909 22.6666 48 20.8757 48 18.6666Z" stroke="black" stroke-width="5.33333" stroke-linecap="round" stroke-linejoin="round"/>
</svg>
