<svg width="64" height="64" viewBox="0 0 64 64" fill="none" xmlns="http://www.w3.org/2000/svg">
<path d="M50.6665 27.9999V26.6665C50.6665 16.6099 50.6662 11.5815 47.5422 8.45736C44.418 5.33325 39.3897 5.33325 29.3332 5.33325C19.2769 5.33325 14.2485 5.33341 11.1243 8.45749C8.00024 11.5817 8.00019 16.6098 8.00011 26.6663L8 38.6666C7.99992 47.433 7.99989 51.8165 10.421 54.7666C10.8643 55.3069 11.3596 55.8021 11.8998 56.2455C14.8501 58.6666 19.2333 58.6666 27.9998 58.6666" stroke="black" stroke-width="5.33333" stroke-linecap="round" stroke-linejoin="round"/>
<path d="M18.667 18.6667H40.0003M18.667 29.3334H29.3337" stroke="black" stroke-width="5.33333" stroke-linecap="round" stroke-linejoin="round"/>
<path d="M48 49.3334L44 47.8668V41.3334M32 46.6667C32 53.2942 37.3725 58.6667 44 58.6667C50.6275 58.6667 56 53.2942 56 46.6667C56 40.0393 50.6275 34.6667 44 34.6667C37.3725 34.6667 32 40.0393 32 46.6667Z" stroke="black" stroke-width="5.33333" stroke-linecap="round" stroke-linejoin="round"/>
</svg>
