<svg width="64" height="64" viewBox="0 0 64 64" fill="none" xmlns="http://www.w3.org/2000/svg">
<path d="M25.3281 40L45.3281 20" stroke="black" stroke-width="5.33333" stroke-linecap="round" stroke-linejoin="round"/>
<path d="M21.3507 20.4771L40.8725 11.2502C48.9839 7.41637 53.0397 5.49943 55.6266 7.4225C58.2135 9.34554 57.4743 13.728 55.9962 22.493L53.4498 37.5915C52.4834 43.3227 51.9999 46.1881 49.8642 47.4377C47.7282 48.6873 44.9535 47.7275 39.4045 45.8081L22.4292 39.9366C12.0516 36.347 6.8628 34.5523 6.66765 31.0307C6.47248 27.5091 11.4319 25.1652 21.3507 20.4771Z" stroke="black" stroke-width="5.33333" stroke-linecap="round" stroke-linejoin="round"/>
<path d="M25.3281 41.3333V47.273C25.3281 53.6026 25.3281 56.7674 27.222 57.2722C29.1158 57.7767 31.1102 55.1437 35.099 49.877L37.3281 46.6666" stroke="black" stroke-width="5.33333" stroke-linecap="round" stroke-linejoin="round"/>
<path d="M6.75008 9C8.06723 9 9.22421 9.6343 9.89266 10.591H15.9546C16.1354 10.591 16.3089 10.658 16.4368 10.7774L17.8003 12.05C18.0666 12.2985 18.0666 12.7015 17.8003 12.95L16.4368 14.2226C16.3089 14.342 16.1354 14.409 15.9546 14.409H15.2727C15.0879 14.409 14.911 14.3391 14.7826 14.2152L14.4205 13.8656L14.0585 14.2152C13.93 14.3391 13.7531 14.409 13.5683 14.409H9.89291C9.22446 15.3658 8.06728 16 6.75008 16C4.679 16 3 14.4329 3 12.5C3 10.567 4.67901 9 6.75008 9ZM4.3638 12.5C4.3638 13.73 5.43213 14.7271 6.75008 14.7271C7.68603 14.7271 8.49736 14.2244 8.88866 13.4895C9.00386 13.2731 9.24054 13.1364 9.4994 13.1364H13.2789L13.9304 12.5077L13.9808 12.4639C14.1033 12.3674 14.2588 12.3138 14.4205 12.3138C14.6053 12.3138 14.7822 12.3837 14.9107 12.5077L15.5621 13.1364H15.672L16.3539 12.5L15.672 11.8636H9.4994C9.24054 11.8636 9.00386 11.7269 8.88866 11.5105C8.49738 10.7756 7.68605 10.2729 6.75008 10.2729C5.43212 10.2729 4.3638 11.2699 4.3638 12.5Z" fill="black"/>
<path d="M7.3335 12C7.70165 12 8 12.2239 8 12.5C8 12.7761 7.70165 13 7.3335 13H6.66675C6.29856 13 6 12.7761 6 12.5C6 12.2239 6.29856 12 6.66675 12H7.3335Z" fill="black"/>
<path d="M4 7.28564V3.71436C4 3.31988 4.22389 3 4.5 3C4.77611 3 5 3.31988 5 3.71436V7.28564C5 7.68012 4.77611 8 4.5 8C4.22389 8 4 7.68012 4 7.28564Z" fill="black"/>
<path d="M7.79991 4.78577C7.79991 4.58853 7.66568 4.42872 7.5 4.42872C7.33432 4.42872 7.20009 4.58853 7.20009 4.78577V6.21423C7.20009 6.41147 7.33432 6.57154 7.5 6.57154C7.66568 6.57154 7.79991 6.41147 7.79991 6.21423V4.78577ZM9 6.21423C9 7.20044 8.32839 8 7.5 8C6.67161 8 6 7.20044 6 6.21423V4.78577C6 3.79956 6.67161 3 7.5 3C8.32839 3 9 3.79956 9 4.78577V6.21423Z" fill="black"/>
<path d="M10 7.28564V3.71436C10 3.31988 10.2239 3 10.5 3C10.7761 3 11 3.31988 11 3.71436V7.28564C11 7.68012 10.7761 8 10.5 8C10.2239 8 10 7.68012 10 7.28564Z" fill="black"/>
<path d="M12 7.28564V3.71436C12 3.31988 12.2239 3 12.5 3C12.7761 3 13 3.31988 13 3.71436V7.28564C13 7.68012 12.7761 8 12.5 8C12.2239 8 12 7.68012 12 7.28564Z" fill="black"/>
<path d="M15.7999 4.78577C15.7999 4.58854 15.6657 4.42872 15.5 4.42872C15.3343 4.42872 15.2001 4.58854 15.2001 4.78577V6.21423C15.2001 6.41146 15.3343 6.57154 15.5 6.57154C15.6657 6.57154 15.7999 6.41146 15.7999 6.21423V4.78577ZM17 6.21423C17 7.20045 16.3284 8 15.5 8C14.6716 8 14 7.20045 14 6.21423V4.78577C14 3.79955 14.6716 3 15.5 3C16.3284 3 17 3.79955 17 4.78577V6.21423Z" fill="black"/>
</svg>
