<svg width="64" height="64" viewBox="0 0 64 64" fill="none" xmlns="http://www.w3.org/2000/svg">
<path d="M45.1219 13.2827C45.5623 12.8423 46.2765 12.8423 46.717 13.2827C47.1574 13.7232 47.1574 14.4373 46.717 14.8778L38.2584 23.3364C37.818 23.7768 37.1038 23.7768 36.6633 23.3364C36.2229 22.8959 36.2229 22.1817 36.6633 21.7413L45.1219 13.2827Z" fill="black"/>
<path d="M48.3297 7.27174C49.479 6.93067 50.7075 6.7988 51.7557 7.55592C52.8101 8.31744 53.0211 9.4998 52.9984 10.6615C52.9757 11.823 52.7073 13.351 52.3843 15.2122L51.2475 21.7601C51.0379 22.9676 50.862 23.9977 50.6028 24.7844C50.3329 25.6036 49.911 26.3604 49.0746 26.8359C48.2407 27.3099 47.3533 27.3006 46.482 27.1349C45.6422 26.9753 44.6202 26.6287 43.416 26.2239L35.839 23.6778C33.5605 22.912 31.7259 22.2984 30.4646 21.6724C29.2505 21.0699 28.0866 20.2257 28.0045 18.7866C27.9223 17.3463 28.9849 16.3839 30.1237 15.6573C31.3065 14.9027 33.0603 14.1002 35.2379 13.1001L43.9517 9.09877C45.7256 8.28412 47.177 7.61378 48.3297 7.27174ZM50.3356 9.41217C50.2292 9.33531 49.9748 9.20245 49.0253 9.48417C48.0791 9.76496 46.8151 10.3417 44.9686 11.1897L36.2553 15.1914C34.0058 16.2245 32.4391 16.9469 31.4301 17.5906C30.3773 18.2623 30.3764 18.5719 30.3813 18.6587C30.3864 18.7469 30.4248 19.0556 31.5478 19.6129C32.6242 20.1471 34.2638 20.7011 36.6171 21.492L44.194 24.0382C45.4665 24.4658 46.3023 24.7438 46.9392 24.8649C47.5444 24.9799 47.753 24.9074 47.8724 24.8395C47.9891 24.7731 48.1517 24.6378 48.3358 24.0793C48.5306 23.4879 48.6785 22.6535 48.9002 21.3756L50.0366 14.8276L50.2672 13.4847C50.4737 12.2499 50.6046 11.3281 50.6185 10.6175C50.637 9.67026 50.4359 9.48464 50.3356 9.41217Z" fill="black"/>
<path d="M41.4743 25.368C41.8204 24.8282 42.505 24.6943 43.0035 25.069C43.502 25.4439 43.6257 26.1858 43.2796 26.7258L42.3609 28.1585C42.3522 28.1719 42.3434 28.1851 42.3343 28.1981C41.5331 29.3439 40.8658 30.3028 40.2948 30.931C39.7987 31.4769 39.0191 32.1845 38.0264 31.9557L37.9294 31.9304C36.8189 31.6098 36.5425 30.4495 36.4421 29.6931C36.3305 28.8531 36.333 27.6881 36.333 26.3174V23.6664C36.333 23.0091 36.8251 22.4761 37.432 22.4761C38.0389 22.4761 38.531 23.0091 38.531 23.6664V26.3174C38.531 27.7716 38.5336 28.7257 38.6171 29.3545C38.6181 29.3615 38.619 29.3685 38.62 29.3754C38.653 29.3416 38.6895 29.3042 38.7286 29.2612C39.1716 28.7738 39.732 27.977 40.5649 26.7859L41.4743 25.368Z" fill="black"/>
<path d="M49.328 38.5235C49.6451 38.2064 50.1593 38.2064 50.4765 38.5235C50.7936 38.8406 50.7936 39.3548 50.4765 39.6719L44.3863 45.7621C44.0692 46.0792 43.555 46.0792 43.2378 45.7621C42.9207 45.445 42.9207 44.9308 43.2378 44.6136L49.328 38.5235Z" fill="black"/>
<path d="M51.6374 34.1957C52.4649 33.9501 53.3494 33.8551 54.1041 34.4003C54.8632 34.9486 55.0152 35.7999 54.9989 36.6363C54.9825 37.4726 54.7892 38.5727 54.5567 39.9128L53.7382 44.6273C53.5873 45.4967 53.4606 46.2383 53.274 46.8048C53.0797 47.3946 52.7759 47.9395 52.1737 48.2819C51.5733 48.6231 50.9344 48.6164 50.307 48.4971C49.7024 48.3822 48.9666 48.1327 48.0995 47.8412L42.6441 46.008C41.0036 45.4566 39.6826 45.0148 38.7745 44.5642C37.9004 44.1303 37.0623 43.5225 37.0032 42.4864C36.9441 41.4493 37.7091 40.7564 38.5291 40.2333C39.3807 39.6899 40.6434 39.1121 42.2113 38.3921L48.4852 35.5111C49.7624 34.9246 50.8075 34.4419 51.6374 34.1957ZM53.0816 35.7368C53.005 35.6814 52.8218 35.5858 52.1382 35.7886C51.4569 35.9908 50.5468 36.406 49.2174 37.0166L42.9438 39.8978C41.3242 40.6416 40.1961 41.1618 39.4697 41.6253C38.7116 42.1089 38.711 42.3318 38.7146 42.3943C38.7182 42.4578 38.7459 42.6801 39.5544 43.0813C40.3295 43.4659 41.5099 43.8648 43.2043 44.4343L48.6597 46.2675C49.5758 46.5754 50.1776 46.7755 50.6362 46.8627C51.072 46.9455 51.2221 46.8933 51.3082 46.8444C51.3922 46.7966 51.5093 46.6992 51.6418 46.2971C51.782 45.8713 51.8885 45.2705 52.0482 44.3504L52.8663 39.6359L53.0324 38.669C53.1811 37.7799 53.2753 37.1163 53.2853 36.6046C53.2986 35.9226 53.1539 35.7889 53.0816 35.7368Z" fill="black"/>
<path d="M46.7017 47.225C46.9509 46.8363 47.4438 46.7399 47.8028 47.0098C48.1617 47.2797 48.2507 47.8138 48.0015 48.2026L47.34 49.2341C47.3339 49.2438 47.3275 49.2533 47.3209 49.2627C46.7441 50.0877 46.2636 50.7781 45.8525 51.2304C45.4953 51.6234 44.934 52.1329 44.2192 51.9682L44.1494 51.95C43.3499 51.7191 43.1509 50.8837 43.0785 50.3391C42.9982 49.7343 43 48.8955 43 47.9085V45.9999C43 45.5266 43.3543 45.1428 43.7913 45.1428C44.2282 45.1428 44.5826 45.5266 44.5826 45.9999V47.9085C44.5826 48.9556 44.5844 49.6425 44.6446 50.0953C44.6453 50.1004 44.6459 50.1054 44.6466 50.1103C44.6704 50.086 44.6967 50.0591 44.7248 50.0281C45.0438 49.6772 45.4472 49.1035 46.0469 48.2459L46.7017 47.225Z" fill="black"/>
<path d="M26.1219 36.2827C26.5623 35.8423 27.2765 35.8423 27.717 36.2827C28.1574 36.7232 28.1574 37.4373 27.717 37.8778L19.2584 46.3364C18.818 46.7768 18.1038 46.7768 17.6633 46.3364C17.2229 45.8959 17.2229 45.1817 17.6633 44.7413L26.1219 36.2827Z" fill="black"/>
<path d="M29.3297 30.2717C30.479 29.9307 31.7075 29.7988 32.7557 30.5559C33.8101 31.3174 34.0211 32.4998 33.9984 33.6615C33.9757 34.823 33.7073 36.351 33.3843 38.2122L32.2475 44.7601C32.0379 45.9676 31.862 46.9977 31.6028 47.7844C31.3329 48.6036 30.911 49.3604 30.0746 49.8359C29.2407 50.3099 28.3533 50.3006 27.482 50.1349C26.6422 49.9753 25.6202 49.6287 24.416 49.2239L16.839 46.6778C14.5605 45.912 12.7259 45.2984 11.4646 44.6724C10.2505 44.0699 9.08659 43.2257 9.00447 41.7866C8.92231 40.3463 9.9849 39.3839 11.1237 38.6573C12.3065 37.9027 14.0603 37.1002 16.2379 36.1001L24.9517 32.0988C26.7256 31.2841 28.177 30.6138 29.3297 30.2717ZM31.3356 32.4122C31.2292 32.3353 30.9748 32.2025 30.0253 32.4842C29.0791 32.765 27.8151 33.3417 25.9686 34.1897L17.2553 38.1914C15.0058 39.2245 13.4391 39.9469 12.4301 40.5906C11.3773 41.2623 11.3764 41.5719 11.3813 41.6587C11.3864 41.7469 11.4248 42.0556 12.5478 42.6129C13.6242 43.1471 15.2638 43.7011 17.6171 44.492L25.194 47.0382C26.4665 47.4658 27.3023 47.7438 27.9392 47.8649C28.5444 47.9799 28.753 47.9074 28.8724 47.8395C28.9891 47.7731 29.1517 47.6378 29.3358 47.0793C29.5306 46.4879 29.6785 45.6535 29.9002 44.3756L31.0366 37.8276L31.2672 36.4847C31.4737 35.2499 31.6046 34.3281 31.6185 33.6175C31.637 32.6703 31.4359 32.4846 31.3356 32.4122Z" fill="black"/>
<path d="M22.4743 48.368C22.8204 47.8282 23.505 47.6943 24.0035 48.069C24.502 48.4439 24.6257 49.1858 24.2796 49.7258L23.3609 51.1585C23.3522 51.1719 23.3434 51.1851 23.3343 51.1981C22.5331 52.3439 21.8658 53.3028 21.2948 53.931C20.7987 54.4769 20.0191 55.1845 19.0264 54.9557L18.9294 54.9304C17.8189 54.6098 17.5425 53.4495 17.4421 52.6931C17.3305 51.8531 17.333 50.6881 17.333 49.3174V46.6664C17.333 46.0091 17.8251 45.4761 18.432 45.4761C19.0389 45.4761 19.531 46.0091 19.531 46.6664V49.3174C19.531 50.7716 19.5336 51.7257 19.6171 52.3545C19.6181 52.3615 19.619 52.3685 19.62 52.3754C19.653 52.3416 19.6895 52.3042 19.7286 52.2612C20.1716 51.7738 20.732 50.977 21.5649 49.7859L22.4743 48.368Z" fill="black"/>
<path d="M6.75008 9C8.06723 9 9.22421 9.6343 9.89266 10.591H15.9546C16.1354 10.591 16.3089 10.658 16.4368 10.7774L17.8003 12.05C18.0666 12.2985 18.0666 12.7015 17.8003 12.95L16.4368 14.2226C16.3089 14.342 16.1354 14.409 15.9546 14.409H15.2727C15.0879 14.409 14.911 14.3391 14.7826 14.2152L14.4205 13.8656L14.0585 14.2152C13.93 14.3391 13.7531 14.409 13.5683 14.409H9.89291C9.22446 15.3658 8.06728 16 6.75008 16C4.679 16 3 14.4329 3 12.5C3 10.567 4.67901 9 6.75008 9ZM4.3638 12.5C4.3638 13.73 5.43213 14.7271 6.75008 14.7271C7.68603 14.7271 8.49736 14.2244 8.88866 13.4895C9.00386 13.2731 9.24054 13.1364 9.4994 13.1364H13.2789L13.9304 12.5077L13.9808 12.4639C14.1033 12.3674 14.2588 12.3138 14.4205 12.3138C14.6053 12.3138 14.7822 12.3837 14.9107 12.5077L15.5621 13.1364H15.672L16.3539 12.5L15.672 11.8636H9.4994C9.24054 11.8636 9.00386 11.7269 8.88866 11.5105C8.49738 10.7756 7.68605 10.2729 6.75008 10.2729C5.43212 10.2729 4.3638 11.2699 4.3638 12.5Z" fill="black"/>
<path d="M7.3335 12C7.70165 12 8 12.2239 8 12.5C8 12.7761 7.70165 13 7.3335 13H6.66675C6.29856 13 6 12.7761 6 12.5C6 12.2239 6.29856 12 6.66675 12H7.3335Z" fill="black"/>
<path d="M4 7.28564V3.71436C4 3.31988 4.22389 3 4.5 3C4.77611 3 5 3.31988 5 3.71436V7.28564C5 7.68012 4.77611 8 4.5 8C4.22389 8 4 7.68012 4 7.28564Z" fill="black"/>
<path d="M7.79991 4.78577C7.79991 4.58853 7.66568 4.42872 7.5 4.42872C7.33432 4.42872 7.20009 4.58853 7.20009 4.78577V6.21423C7.20009 6.41147 7.33432 6.57154 7.5 6.57154C7.66568 6.57154 7.79991 6.41147 7.79991 6.21423V4.78577ZM9 6.21423C9 7.20044 8.32839 8 7.5 8C6.67161 8 6 7.20044 6 6.21423V4.78577C6 3.79956 6.67161 3 7.5 3C8.32839 3 9 3.79956 9 4.78577V6.21423Z" fill="black"/>
<path d="M10 7.28564V3.71436C10 3.31988 10.2239 3 10.5 3C10.7761 3 11 3.31988 11 3.71436V7.28564C11 7.68012 10.7761 8 10.5 8C10.2239 8 10 7.68012 10 7.28564Z" fill="black"/>
<path d="M12 7.28564V3.71436C12 3.31988 12.2239 3 12.5 3C12.7761 3 13 3.31988 13 3.71436V7.28564C13 7.68012 12.7761 8 12.5 8C12.2239 8 12 7.68012 12 7.28564Z" fill="black"/>
<path d="M15.7999 4.78577C15.7999 4.58854 15.6657 4.42872 15.5 4.42872C15.3343 4.42872 15.2001 4.58854 15.2001 4.78577V6.21423C15.2001 6.41146 15.3343 6.57154 15.5 6.57154C15.6657 6.57154 15.7999 6.41146 15.7999 6.21423V4.78577ZM17 6.21423C17 7.20045 16.3284 8 15.5 8C14.6716 8 14 7.20045 14 6.21423V4.78577C14 3.79955 14.6716 3 15.5 3C16.3284 3 17 3.79955 17 4.78577V6.21423Z" fill="black"/>
</svg>
