<svg width="64" height="64" viewBox="0 0 64 64" fill="none" xmlns="http://www.w3.org/2000/svg">
<path d="M42.6673 32C42.6673 32 34.8115 42.6667 32.0006 42.6667C29.1897 42.6667 21.334 32 21.334 32M32.0006 41.3333V8" stroke="black" stroke-width="5.33333" stroke-linecap="round" stroke-linejoin="round"/>
<path d="M45.3333 21.3333C51.2245 21.3333 55.9999 26.1089 55.9999 31.9999V38.6666C55.9999 44.8922 55.9999 48.005 54.7405 50.3615C53.7461 52.2221 52.2221 53.7458 50.3615 54.7405C48.0053 55.9999 44.8925 55.9999 38.6666 55.9999H25.3344C19.1077 55.9999 15.9944 55.9999 13.6377 54.7399C11.7777 53.7455 10.2543 52.2223 9.25989 50.3623C8 48.0055 8 44.8922 8 38.6655V31.9973C8.00147 26.1096 12.773 21.3366 18.6606 21.3333H18.6667" stroke="black" stroke-width="5.33333" stroke-linecap="round" stroke-linejoin="round"/>
</svg>
