<svg width="64" height="64" viewBox="0 0 64 64" fill="none" xmlns="http://www.w3.org/2000/svg">
<path d="M25.3281 40L45.3281 20" stroke="black" stroke-width="5.33333" stroke-linecap="round" stroke-linejoin="round"/>
<path d="M21.3507 20.4771L40.8725 11.2502C48.9839 7.41637 53.0397 5.49943 55.6266 7.4225C58.2135 9.34554 57.4743 13.728 55.9962 22.493L53.4498 37.5915C52.4834 43.3227 51.9999 46.1881 49.8642 47.4377C47.7282 48.6873 44.9535 47.7275 39.4045 45.8081L22.4292 39.9366C12.0516 36.347 6.8628 34.5523 6.66765 31.0307C6.47248 27.5091 11.4319 25.1652 21.3507 20.4771Z" stroke="black" stroke-width="5.33333" stroke-linecap="round" stroke-linejoin="round"/>
<path d="M25.3281 41.3333V47.273C25.3281 53.6026 25.3281 56.7674 27.222 57.2722C29.1158 57.7767 31.1102 55.1437 35.099 49.877L37.3281 46.6666" stroke="black" stroke-width="5.33333" stroke-linecap="round" stroke-linejoin="round"/>
</svg>
